<svg id="Layer_1" data-name="Layer 1" xmlns="http://www.w3.org/2000/svg" viewBox="0 0 283.46 283.46"><defs><style>.cls-1{fill:#35efac;}.cls-2{fill:#4e79f2;}.cls-3{fill:#fff;}</style></defs><title>Untitled-2</title><circle class="cls-1" cx="141.73" cy="141.73" r="136.46"/><circle class="cls-2" cx="141.73" cy="141.73" r="133.66"/><circle class="cls-1" cx="141.73" cy="141.73" r="130.08"/><path d="M153,133.28a1.08,1.08,0,0,0,.58,1.41l4.53,1.88L160,132a1.08,1.08,0,0,0-.58-1.41,1.09,1.09,0,0,0-1.41.59l-.62,1.49a18,18,0,1,0,.81,15.66l.35.86a1.08,1.08,0,0,0,1,.66,1,1,0,0,0,.41-.08,1.06,1.06,0,0,0,.58-1.4l-1.88-4.54-4.54,1.87a1.08,1.08,0,0,0-.58,1.41,1.05,1.05,0,0,0,1.4.58l1.45-.6A15.78,15.78,0,1,1,155.12,133l-.7-.29A1.07,1.07,0,0,0,153,133.28Z"/><path d="M143.85,107.12a1.07,1.07,0,0,0-1.52-1.52l-3.48,3.48,3.48,3.47a1.07,1.07,0,0,0,.76.32,1.09,1.09,0,0,0,.76-.32,1.07,1.07,0,0,0,0-1.52l-.81-.81a31.16,31.16,0,1,1-15.75,3.49v1a1.08,1.08,0,0,0,2.15,0v-4.92h-4.91a1.08,1.08,0,1,0,0,2.15h1.59a33.41,33.41,0,1,0,16.79-3.83Z"/><path d="M181,112.48l1.24.26a1.07,1.07,0,1,0,.43-2.1l-4.81-1-1,4.81a1.07,1.07,0,0,0,.83,1.27.83.83,0,0,0,.22,0,1.07,1.07,0,0,0,1-.86l.25-1.2a46,46,0,0,1,9.15,27.68,46.6,46.6,0,0,1-91.9,10.92l.94.52a1.08,1.08,0,0,0,1.46-.42,1.07,1.07,0,0,0-.42-1.46l-4.3-2.38-2.38,4.3a1.07,1.07,0,0,0,.42,1.46,1.06,1.06,0,0,0,.52.13,1.08,1.08,0,0,0,.94-.55l.69-1.25a48.75,48.75,0,0,0,96.18-11.27A48.23,48.23,0,0,0,181,112.48Z"/><path d="M97.76,135.65a1.07,1.07,0,1,0-1.52-1.52l-.6.6a46.37,46.37,0,0,1,44.68-39.91l-.74.86a1.08,1.08,0,0,0,.11,1.52,1.13,1.13,0,0,0,.7.26,1.06,1.06,0,0,0,.82-.38l3.2-3.73-3.74-3.2a1.08,1.08,0,0,0-1.4,1.64l1,.88a48.52,48.52,0,0,0-46.9,42.52l-1.07-1.06a1.07,1.07,0,1,0-1.52,1.52l3.48,3.47Z"/><path class="cls-3" d="M141.73,100.3a41.1,41.1,0,1,0,23.8,74.52l.14,1.78a.65.65,0,0,0,.65.6h.05a.66.66,0,0,0,.6-.7l-.36-4.48-4.47.35a.65.65,0,0,0-.6.7.67.67,0,0,0,.7.6l1.32-.1c-.92.62-1.86,1.22-2.83,1.76a39,39,0,1,1,15-15.08l-.59-1.53a.65.65,0,1,0-1.21.46l1.59,4.19,4.2-1.59a.65.65,0,1,0-.46-1.22l-1.58.61a41,41,0,0,0-36-60.87Z"/><path class="cls-3" d="M167.39,141.37a25.66,25.66,0,1,0-39.26,21.71l-1.8.29a.65.65,0,0,0,.11,1.3h.1l4.43-.72-.71-4.43a.67.67,0,0,0-.75-.54.66.66,0,0,0-.54.75l.25,1.51a23.5,23.5,0,1,1,13.59,3.59l1-1.14a.65.65,0,0,0,0-.92.66.66,0,0,0-.92,0l-3,3.34,3.33,3a.67.67,0,0,0,.44.17.66.66,0,0,0,.44-1.14l-1.34-1.2A25.68,25.68,0,0,0,167.39,141.37Z"/><path class="cls-3" d="M187.73,176.05l-1.64.2a56.42,56.42,0,0,0,4.85-62.61,57.24,57.24,0,0,0-16.29-18.16c-.92-.66-1.87-1.3-2.83-1.91a56.47,56.47,0,1,0-42.63,102.84l-1.3,1a.65.65,0,0,0-.13.91.66.66,0,0,0,.52.26.62.62,0,0,0,.39-.14l3.58-2.72-2.72-3.57a.65.65,0,0,0-1,.79l1,1.34a54.31,54.31,0,1,1,41.16-98.88c.93.59,1.84,1.2,2.72,1.84a54.24,54.24,0,0,1,11,77.71l-.2-1.67a.62.62,0,0,0-.72-.57.65.65,0,0,0-.57.72l.54,4.46,4.46-.54a.64.64,0,0,0,.56-.72A.63.63,0,0,0,187.73,176.05Z"/><path d="M45.14,114.81l1-3.45a27.29,27.29,0,0,1,1.65-4.58,3.38,3.38,0,0,1,1.95-1.59,6.52,6.52,0,0,1,3.71.27,5.67,5.67,0,0,1,2.77,1.41,3,3,0,0,1,.27,2.41A3.79,3.79,0,0,1,58,107.62a3,3,0,0,1,1.29-.29,17.55,17.55,0,0,1,2.8.69l4.93,1.47L65.73,114l-6.22-1.84a4.51,4.51,0,0,0-1.93-.31c-.29.09-.53.46-.72,1.13l8.43,2.5-1.44,4.87Zm4.65-3.92,4.15,1.23a2.19,2.19,0,0,0,.12-1.21c-.09-.27-.54-.52-1.37-.77l-1-.3a1.62,1.62,0,0,0-1.27,0A1.91,1.91,0,0,0,49.79,110.89Z"/><path d="M52.57,94.23l4-7.44L60,88.65l-1.61,3,3.25,1.76,1.51-2.78,3.26,1.77-1.51,2.78,3.77,2,1.78-3.27L73.9,95.8l-4.19,7.73Z"/><path d="M68,71.47,84.81,81.83l-3.34,4-2.86-2.06-1.17,1.39,2.48,2.49-3.38,4L63.3,77.08Zm7.85,10.15c-1.85-1.23-4.11-2.8-6.76-4.7q3.78,4.22,5.63,6Z"/><path d="M91.57,62.25l-4,3.06-2-2.7a5.84,5.84,0,0,0-1.24-1.38.7.7,0,0,0-.79.14.75.75,0,0,0-.37.84,6.82,6.82,0,0,0,1,1.64l5.46,7.23a6.46,6.46,0,0,0,1.26,1.38.71.71,0,0,0,.86-.12.7.7,0,0,0,.33-.79,6.83,6.83,0,0,0-1.09-1.73l-1.48-2,4-3.06.46.61a15.09,15.09,0,0,1,2.25,3.68A4.43,4.43,0,0,1,96,72a6.5,6.5,0,0,1-2.31,2.94,7.46,7.46,0,0,1-3.42,1.57,3.88,3.88,0,0,1-2.87-.63,14.77,14.77,0,0,1-3-3.14L81,68.2a26.58,26.58,0,0,1-1.8-2.62,4.49,4.49,0,0,1-.53-2.14A4.83,4.83,0,0,1,79.36,61a7.09,7.09,0,0,1,2-2.21,7.19,7.19,0,0,1,3.48-1.54,4.16,4.16,0,0,1,2.83.57,13,13,0,0,1,2.79,2.93Z"/><path d="M104.9,45.91l1.62,3.55-2.74,1.26,6.51,14.18L105.67,67l-6.5-14.19-2.72,1.25-1.63-3.55Z"/><path d="M143.63,49a3.56,3.56,0,1,1-7.12.2,3.59,3.59,0,0,1,3.5-3.61,3.33,3.33,0,0,1,2.58,1A3.42,3.42,0,0,1,143.63,49Z"/><path d="M183.63,55.74l-4.29-2,.6-1.32a2.75,2.75,0,0,0,.37-1.25.65.65,0,0,0-.43-.5.75.75,0,0,0-.78.05,2.18,2.18,0,0,0-.69.93,3.3,3.3,0,0,0-.37,1.45,3.92,3.92,0,0,0,.81,1.68,14.64,14.64,0,0,1,2.52,4.77,7.67,7.67,0,0,1-.93,4.15,7.33,7.33,0,0,1-1.72,2.6,3.85,3.85,0,0,1-2.4.72,7.52,7.52,0,0,1-3.24-.74,7.32,7.32,0,0,1-2.84-2.14,3.78,3.78,0,0,1-.9-2.57,10,10,0,0,1,1-3.27l.53-1.16,4.28,2-1,2.16a2.94,2.94,0,0,0-.4,1.37.76.76,0,0,0,.51.58.83.83,0,0,0,.85,0,2.34,2.34,0,0,0,.71-1,3.61,3.61,0,0,0,.51-2.24,15.35,15.35,0,0,0-1.43-2.6,22.34,22.34,0,0,1-1.52-2.69,4.22,4.22,0,0,1-.28-1.85,6.82,6.82,0,0,1,.69-2.49,7.15,7.15,0,0,1,1.88-2.75,3.86,3.86,0,0,1,2.36-.7,7.14,7.14,0,0,1,3,.75,8,8,0,0,1,2.8,2,3.57,3.57,0,0,1,1,2.23A8.66,8.66,0,0,1,184,55Z"/><path d="M195.11,55.81l6.83,5L199.63,64l-2.73-2-2.19,3,2.56,1.87-2.19,3-2.56-1.87L190,71.4l3,2.19-2.31,3.16-7.09-5.2Z"/><path d="M212.94,71.25,201.56,81.93l2.12,2.25-2.85,2.67-5.58-5.94,14.21-13.36Z"/><path d="M220.86,81l4.56,7.11-3.28,2.11-1.83-2.85-3.11,2,1.71,2.67-3.13,2-1.71-2.67-3.61,2.32,2,3.13-3.29,2.1-4.74-7.4Z"/><path d="M226.45,111.45l-1.79-4.76,3.18-1.19a5.84,5.84,0,0,0,1.67-.8.7.7,0,0,0,.09-.8c-.15-.39-.38-.58-.7-.58a6.05,6.05,0,0,0-1.86.52L218.56,107a6.09,6.09,0,0,0-1.68.81.72.72,0,0,0-.14.86.7.7,0,0,0,.67.54,6.79,6.79,0,0,0,2-.55l2.3-.86,1.78,4.75-.71.26a15,15,0,0,1-4.17,1.11,4.35,4.35,0,0,1-2.75-1,6.51,6.51,0,0,1-2.16-3,7.55,7.55,0,0,1-.54-3.72,4,4,0,0,1,1.42-2.58,14.56,14.56,0,0,1,3.86-2l5.33-2a26.72,26.72,0,0,1,3-1,4.49,4.49,0,0,1,2.2.1,4.89,4.89,0,0,1,2.14,1.32,8.16,8.16,0,0,1,2,6.31,4.17,4.17,0,0,1-1.35,2.55,12.91,12.91,0,0,1-3.61,1.84Z"/><path d="M238.32,128.92l-3.86.55-.43-3-15.45,2.19-.71-5,15.45-2.18-.42-3,3.87-.55Z"/><path d="M224.4,165.2a3.56,3.56,0,0,1-.81-6.56,3.57,3.57,0,0,1,5.14,4.1,3.36,3.36,0,0,1-1.76,2.17A3.44,3.44,0,0,1,224.4,165.2Z"/><path d="M54,154.63a3.55,3.55,0,1,1-2.54,4.28,3.38,3.38,0,0,1,.45-2.75A3.42,3.42,0,0,1,54,154.63Z"/><path d="M81.73,191.16,65,199.8l-4.22-6.07,13.76-13L77.43,185q-5.84,5.15-10,8.51,4.65-2.78,8.34-4.82l3-1.71Z"/><path d="M89,198.54,75.8,211.82l-3.45-3.43,13.17-13.27Z"/><path d="M93.91,203l2.85,1.93a25.65,25.65,0,0,1,3.71,2.84,3.21,3.21,0,0,1,.88,2.23,6.18,6.18,0,0,1-1.32,3.32,5.54,5.54,0,0,1-2.09,2.12,2.88,2.88,0,0,1-2.28-.45,3.64,3.64,0,0,1,1.07,1.88,2.86,2.86,0,0,1-.11,1.26,16.58,16.58,0,0,1-1.45,2.35l-2.77,4.09L88.66,222l3.49-5.14a4.49,4.49,0,0,0,.85-1.67c0-.29-.27-.62-.83-1l-4.73,7-4-2.73Zm2.23,5.37-2.34,3.45a2.14,2.14,0,0,0,1.08.45c.27,0,.63-.34,1.1-1l.57-.85a1.49,1.49,0,0,0,.39-1.15A1.78,1.78,0,0,0,96.14,208.34Z"/><path d="M117.7,215.69l-1.4,3.47-2.68-1.09L108,231.93l-4.5-1.82,5.62-13.86-2.67-1.08,1.41-3.47Z"/><path d="M134.06,219.16l-2.13,12.31a21,21,0,0,1-.65,2.92,4.08,4.08,0,0,1-1.11,1.6,4.24,4.24,0,0,1-2,1,6.82,6.82,0,0,1-2.67,0,7.4,7.4,0,0,1-2.82-1.05,4.37,4.37,0,0,1-1.64-1.75,3.9,3.9,0,0,1-.42-2c0-.66.23-2,.59-4.11l1.89-10.9,4.79.83-2.39,13.82a5.46,5.46,0,0,0-.14,1.56.53.53,0,0,0,.47.43.56.56,0,0,0,.65-.27,7,7,0,0,0,.44-1.72l2.35-13.58Z"/><path d="M148.89,219.11l3.64,18.55-5,.23-.41-3.35-1.74.08-.14,3.38-5,.23,1.62-18.8Zm-2,12.13c-.35-2.11-.71-4.71-1.1-7.81q-.5,5.4-.57,7.89Z"/><path d="M161.73,216.81l3.56,14.52,2.87-.7.89,3.64-7.6,1.85L157,218Z"/><path d="M174.64,212.18,182,229.37l-4.47,1.91-7.35-17.19Z"/><path d="M187.42,204.78l2,3.15,3,11.4,3-2,2,3.15L190,225.36l-1.47-2.28L185,210.75l-2.78,1.78-2-3.15Z"/><path d="M192.07,201.11l5.92-5.54,2.55,2.73-2.36,2.22,2.42,2.59,2.22-2.08,2.43,2.6L203,205.7l2.81,3,2.61-2.44L211,209l-6.15,5.76Z"/><path d="M202.25,190.89l2.09-3a22,22,0,0,1,3-3.71,3.65,3.65,0,0,1,2-.93,3.34,3.34,0,0,1,1.81.28,24.69,24.69,0,0,1,3,1.92l5.36,3.77a14.59,14.59,0,0,1,2.61,2.13,2.5,2.5,0,0,1,.62,1.44,3.46,3.46,0,0,1-.29,1.57,13.06,13.06,0,0,1-1.35,2.25l-3.53,5Zm5.41-2.14,10.06,7.08c.41-.58.54-1,.4-1.3a6,6,0,0,0-1.73-1.52l-5.95-4.18a8.82,8.82,0,0,0-1.38-.87.79.79,0,0,0-.64,0A2.47,2.47,0,0,0,207.66,188.75Z"/></svg>