<svg id="Layer_1" data-name="Layer 1" xmlns="http://www.w3.org/2000/svg" viewBox="0 0 283.46 283.46"><defs><style>.cls-1{fill:#35efac;}.cls-2,.cls-3,.cls-4{fill:none;stroke-linecap:round;stroke-miterlimit:10;}.cls-2,.cls-4{stroke:#fff;}.cls-2,.cls-3{stroke-width:4.17px;}.cls-3{stroke:#000;}.cls-4{stroke-width:2.52px;}</style></defs><title>Opciones</title><rect class="cls-1" x="5.38" y="5.8" width="272.28" height="272.28" rx="136.14" ry="136.14"/><path class="cls-2" d="M118.62,246.5a107.46,107.46,0,1,1,79.9-196q2.74,1.72,5.39,3.63a108.08,108.08,0,0,1,31,34.56,107.51,107.51,0,0,1-10.72,121.1"/><path class="cls-3" d="M213.73,83.92a92.52,92.52,0,1,1-163.1,76.17"/><path class="cls-3" d="M49.23,132a92.53,92.53,0,0,1,92-83"/><path class="cls-2" d="M187,204.08A77.48,77.48,0,1,1,208,181"/><path class="cls-3" d="M141.27,78.81a62.59,62.59,0,1,1-27.48,6.33"/><path class="cls-2" d="M117.13,182.59a47.7,47.7,0,1,1,24.14,6.55"/><path class="cls-3" d="M172.39,151.68a32.75,32.75,0,1,1-1.33-23.88"/><polyline class="cls-3" points="165.09 126.56 171.96 129.41 174.82 122.53"/><polyline class="cls-3" points="175.86 155.88 173.02 149 166.13 151.84"/><polyline class="cls-3" points="115.34 89.64 115.34 82.19 107.9 82.19"/><polyline class="cls-3" points="143.9 73.54 138.63 78.81 143.9 84.08"/><polyline class="cls-3" points="138.67 54.18 143.51 48.52 137.85 43.68"/><polyline class="cls-3" points="220.23 83.87 212.94 82.36 211.43 89.66"/><polyline class="cls-3" points="43.97 128.87 49.23 134.14 54.5 128.87"/><polyline class="cls-3" points="56.26 161.82 49.74 158.21 46.13 164.72"/><polyline class="cls-4" points="111.6 185.38 118.95 184.2 117.77 176.84"/><polyline class="cls-4" points="144.44 183.88 139.44 189.4 144.97 194.4"/><polyline class="cls-4" points="204.92 175.55 207.57 182.51 214.53 179.86"/><polyline class="cls-4" points="188.96 209.69 188.38 202.26 180.95 202.85"/><polyline class="cls-4" points="222.36 203.48 223.25 210.87 230.65 209.98"/><polyline class="cls-4" points="115.18 251.14 121.1 246.63 116.59 240.7"/></svg>